<svg xmlns="http://www.w3.org/2000/svg" width="32" height="32" viewBox="0 0 512 512">
  <circle cx="256" cy="256" r="256" fill="#1DB954"/>
  <path fill="black" d="M374.2 361.2c-4.6 7.6-14.4 10.1-22 5.5-60.3-36.8-136.3-45-226.3-24.5-8.6 1.9-17.1-3.5-19-12.1s3.5-17.1 12.1-19c101.6-23.2 189.5-13.4 259.6 28.8 7.7 4.6 10.2 14.5 5.6 22.3zm30.5-65.3c-5.7 9.1-17.8 12-26.9 6.3-68.9-42-173.9-54.1-255.2-29.4-10.2 3-21-2.6-24-12.8s2.6-21 12.8-24c94.5-27.9 213.7-14.2 294.7 34.4 9.1 5.7 12 17.8 6.3 26.9zm2.8-67.6c-82.2-48.9-218.8-53.4-296.3-28.7-12 3.8-24.9-2.6-28.7-14.6s2.6-24.9 14.6-28.7c91.5-29.2 246.4-23.9 341.5 32.9 10.9 6.5 14.4 20.5 7.8 31.3-6.6 10.8-20.7 14.3-31.3 7.8z"/>
</svg>
